Coordinates
version=1
nRows=8
nColumns=40
inDegrees=yes

Units are S.I. units (second, meters, Newtons, ...)
Angles are in degrees.

endheader
time	pelvis_tilt	pelvis_list	pelvis_rotation	pelvis_tx	pelvis_ty	pelvis_tz	hip_flexion_r	hip_adduction_r	hip_rotation_r	knee_angle_r	knee_angle_r_beta	ankle_angle_r	subtalar_angle_r	mtp_angle_r	hip_flexion_l	hip_adduction_l	hip_rotation_l	knee_angle_l	knee_angle_l_beta	ankle_angle_l	subtalar_angle_l	mtp_angle_l	lumbar_extension	lumbar_bending	lumbar_rotation	arm_flex_r	arm_add_r	arm_rot_r	elbow_flex_r	pro_sup_r	wrist_flex_r	wrist_dev_r	arm_flex_l	arm_add_l	arm_rot_l	elbow_flex_l	pro_sup_l	wrist_flex_l	wrist_dev_l
     55.57500000	     -4.77894363	     -4.68856620	      3.43808001	      0.95861919	      0.93272447	      0.41592276	     38.18079633	     -7.28865037	     -5.78569532	     64.44668905	     64.44668905	     -1.53633161	     -8.85122363	     -2.03494487	     13.64985253	     -4.67612707	    -10.09012393	     21.11176187	     21.11176187	     16.47840706	     -0.29372810	      0.11692161	    -12.46169055	      4.04196848	      2.03964787	      2.02828369	    -13.52453131	    -11.12692842	     27.37071997	     47.02266348	      0.00000000	      0.00000000	     22.70979459	    -14.87040465	      4.60279588	     60.70750721	     46.26209655	      0.00000000	      0.00000000
     55.58685714	     -4.81587857	     -4.64501674	      3.51822982	      0.95806894	      0.93278292	      0.41572438	     38.52226866	     -7.20676530	     -5.81950203	     61.51095658	     61.51095658	     -1.36714520	     -8.65315170	     -1.71696497	     12.82058462	     -4.58665047	    -10.12634817	     20.50537221	     20.50537221	     16.75236593	      0.03563809	     -0.04536192	    -12.49006098	      3.95544487	      1.99911578	      0.00053750	    -13.47417453	    -11.29872227	     26.04718206	     47.06979065	      0.00000000	      0.00000000	     24.05574358	    -14.98000622	      4.56563012	     62.23677954	     46.30718119	      0.00000000	      0.00000000
     55.59871429	     -4.83462802	     -4.50625460	      3.54528778	      0.95762987	      0.93265995	      0.41559585	     38.68801560	     -7.17059284	     -5.77371104	     58.27497339	     58.27497339	     -1.18222238	     -8.64406840	     -1.46089116	     11.94245758	     -4.40613869	    -10.23654846	     19.88523372	     19.88523372	     16.99144630	      0.35034057	     -0.35370038	    -12.55354385	      3.76193365	      2.09606956	     -1.99837318	    -13.40567050	    -11.60594269	     24.61839350	     47.13351128	      0.00000000	      0.00000000	     25.27863894	    -15.18809198	      4.74383556	     64.23567913	     46.34795507	      0.00000000	      0.00000000
     55.61057143	     -4.91429042	     -4.41761305	      3.59630092	      0.95729477	      0.93239980	      0.41546027	     38.68767590	     -7.11969333	     -5.89307295	     54.65670351	     54.65670351	     -1.02076837	     -8.77294576	     -1.17678154	     11.10622042	     -4.25994057	    -10.26803942	     19.21591544	     19.21591544	     17.21545449	      0.64343223	     -0.64301903	    -12.52244014	      3.66010477	      2.00250601	     -3.90357702	    -13.33897065	    -11.89934491	     23.51743448	     47.18558787	      0.00000000	      0.00000000	     26.27172029	    -15.43090155	      4.87728828	     66.04166995	     46.38571525	      0.00000000	      0.00000000
     55.62242857	     -5.11163517	     -4.30327767	      3.66977180	      0.95700447	      0.93179026	      0.41535328	     38.64048564	     -7.13512875	     -6.15702201	     50.78008595	     50.78008595	     -0.79511528	     -8.87274754	     -0.78974094	     10.43347954	     -4.07982084	    -10.26885219	     18.61517521	     18.61517521	     17.48081138	      0.91516466	     -0.87500437	    -12.29144118	      3.54856588	      1.74806535	     -5.77534517	    -13.23545762	    -12.08320354	     22.70408724	     47.21758881	      0.00000000	      0.00000000	     27.22185211	    -15.75123349	      4.82920993	     67.44232119	     46.42415753	      0.00000000	      0.00000000
     55.63428571	     -5.10000752	     -4.06197262	      3.62283340	      0.95705374	      0.93140478	      0.41534722	     38.15104241	     -7.11938861	     -6.30816520	     46.57704928	     46.57704928	     -0.64354646	     -9.11767970	     -0.65674710	      9.33841083	     -3.77961748	    -10.47577782	     17.74400789	     17.74400789	     17.59627565	      1.28913413	     -1.33830293	    -12.41785617	      3.26635487	      1.99725998	     -7.80460227	    -13.16319843	    -12.49200063	     21.90397598	     47.26825686	      0.00000000	      0.00000000	     27.94536351	    -15.88662691	      5.05986781	     70.13710963	     46.47349275	      0.00000000	      0.00000000
     55.64614286	     -5.25282541	     -3.86670368	      3.62431776	      0.95718542	      0.93054411	      0.41540490	     37.60634299	     -7.11402394	     -6.78726279	     42.07183582	     42.07183582	     -0.85723797	     -9.30469401	     -1.48185981	      8.44949116	     -3.50270530	    -10.54151691	     16.86908714	     16.86908714	     17.37001710	      1.45330086	     -2.74947181	    -12.32889561	      3.03783689	      1.51940683	     -9.48857277	    -13.02819405	    -13.79538642	     21.81907750	     47.36770549	      0.00000000	      0.00000000	     27.84857938	    -16.83510897	      5.28909994	     73.57950835	     46.59269578	      0.00000000	      0.00000000
     55.65800000	     -5.36303033	     -3.64387298	      3.59746960	      0.95751085	      0.92965008	      0.41555572	     36.88446985	     -7.08037326	     -7.39984608	     37.53233144	     37.53233144	     -0.60826738	     -9.03360219	     -0.75101927	      7.51879405	     -3.22286265	    -10.68497708	     16.09109954	     16.09109954	     17.63777640	      1.83324137	     -2.94291713	    -12.17021790	      2.78357508	      1.60598123	    -11.29294217	    -12.97277079	    -13.96951933	     21.23884737	     47.38881939	      0.00000000	      0.00000000	     28.55633096	    -16.79373133	      5.06916871	     74.88390196	     46.64730970	      0.00000000	      0.00000000
